<?xml version="1.0" encoding="UTF-8"?><svg xmlns="http://www.w3.org/2000/svg" viewBox="0 0 770.52 1025"><defs><style>.cls-1,.cls-2{fill:none;stroke:lime;stroke-miterlimit:10;stroke-width:5px;}.cls-2{stroke-dasharray:0 0 11.92 11.92;}</style></defs><g id="PERSONA"><path class="cls-1" d="m1.08,780.67c9.67-4.62,19.38-9.16,28.83-14.21,3.96-2.11,7.84-4.36,11.83-6.41,3.19-1.64,6.47-3.11,9.73-4.6,4.28-1.97,8.57-3.91,12.87-5.82,2.36-1.05,4.87-1.72,7.26-2.63,4.58-1.75,9.32-3.2,13.38-6.13.81-.59,1.7-1.11,2.62-1.5,5.15-2.21,10.11-4.81,15.34-6.88,3.73-1.48,7.11-3.78,10.87-5.28,5.73-2.28,11.43-4.63,17.08-7.1,4.83-2.11,9.51-4.56,14.34-6.65,4.83-2.09,9.51-4.55,14.55-6.15.64-.2,1.31-.39,1.88-.73,6.88-4,14.71-5.72,21.78-9.4,6.81-3.54,13.95-6.63,21.26-9.25,3.64-1.3,7.04-3.41,10.7-4.84.41-.16.86-.37,1.15-.69,3.64-4.14,8.74-5.25,13.7-6.59,1.92-.52,3.55-1.35,4.82-2.86,4.73-5.63,10.61-9.88,16.7-13.87,1.38-.91,1.92-2.04,1.97-3.62.22-6.59.41-13.19.1-19.79-.1-2.24-.05-4.49-.06-6.73-.04-12.78.06-25.57-.19-38.35-.12-6.26-.82-12.52-1.36-18.77-.55-6.48-1.2-12.94-1.84-19.41-.46-4.69-1.4-9.29-2.42-13.89-2.13-9.62-4.36-19.23-5.87-28.98-.65-4.2-1.86-8.34-2.23-12.56-.49-5.6-1.84-11.05-2.31-16.63-.1-1.24-.39-2.42-.74-3.61-.67-2.31-1.94-3.81-4.27-4.76-4.36-1.78-8.41-4.26-12.86-5.83-7.99-2.83-12.58-8.69-14.87-16.58-3.69-12.71-7.33-25.43-10.96-38.15-1.01-3.56-1.77-7.18-2.33-10.85-1.02-6.66-2.57-13.21-4.28-19.72-1.23-4.69-1.87-9.4-.99-14.3,1.39-7.72,2.5-15.49,3.76-23.24.33-2,1.04-3.91,1.89-5.74,2.11-4.52,6.37-6.42,11.14-4.93,1.28.4,2.47,1.05,3.72,1.55,1.42.57,2.48.04,2.95-1.33.53-1.58,1.17-3.22.3-4.89-.6-1.14-.69-2.35-.72-3.59-.11-4.39-.85-8.66-1.74-12.96-.7-3.38-.79-6.9-1.79-10.24-.84-2.82-1.47-5.61-.66-8.56.17-.62.14-1.38-.05-2-1.23-4.15-1.51-8.29-.23-12.48.17-.55.14-1.13-.17-1.63-.78-1.25-.67-2.53-.36-3.9.32-1.39.36-2.53-1.59-3.02-1.67-.41-2.27-2.59-1.46-4.79.35-.94.09-1.39-.22-2.27-1.03-2.9-.51-5.93.46-8.81.5-1.48,1.25-2.88,1.96-4.27.75-1.46,1.22-2.91.34-4.47-.82-1.47.17-2.55.76-3.73.4-.79.92-1.42-.33-2.19-1.87-1.14-1.91-1.9-.15-3.11,1.62-1.11,2.71-2.28,2.57-4.33,0-.11.1-.27.05-.32-1.25-1.55-.75-3.23-.62-4.99.14-1.87-.34-3.78-.55-5.67-.07-.66-.43-1.47-.18-1.97,1.84-3.68,1.2-7.97,2.94-11.65.34-.71.57-1.44.72-2.22.69-3.63,1.43-7.24,3.67-10.36,1.67-2.34,1.15-5.45,2.51-7.94.37-.68.43-1.57.9-2.15,2.5-3.07,3.34-6.87,4.33-10.49.96-3.54,2.39-6.74,4.32-9.78.96-1.52,1.83-3.08,2.38-4.81.24-.74.49-1.57.99-2.12,2.96-3.18,4.56-7.12,6.49-10.92,2.12-4.19,5.82-7.12,9.53-9.81,3.05-2.21,5.44-5.01,7.55-7.92,3.63-5.03,8.1-8.81,13.47-11.81,4.98-2.78,9.89-5.73,14.52-9.05,4.78-3.42,9.56-6.64,15.38-7.98.79-.18,1.43-.63,2.06-1.1.72-.54,1.41-1.15,2.2-1.55,2.16-1.1,4.56-1.58,5.27-4.67.37-1.6,2.73-2.26,4.31-2.95,3.06-1.35,6.3-2.31,9.49-3.33,1.73-.55,3.55-.28,5.35-.31,1.54-.02,3.41.33,3.9-2.04.21-1.04,1.33-1.25,2.21-1.13,3.04.44,6.03.16,9.04-.22.44-.05.93-.05,1.34.1,4.77,1.66,9.5.62,14.23-.18,1.46-.25,2.91-.42,3.74-1.89.16-.29.4-.75.62-.76,3.17-.12,5.65-2.67,9.21-2.06,3.42.58,7.09.83,10.55-.51.61-.24,1.32-.26,1.99-.3,2.87-.15,5.72.05,8.61-.58,2.7-.59,5.25.81,7.75,1.81,3.92,1.58,8.03,1.56,11.8.13,2.78-1.05,5.42-1.5,8.16-.85,4.04.95,8.16,1.46,12.15,2.67,1.57.48,2.82,1.12,3.81,2.49,1.31,1.81,2.83,3.47,4.29,5.17,2.19,2.53,5.05,2.99,7.95,1.86,3.29-1.28,6.59-1.2,9.94-.82,2.98.33,6.08.3,8.7,2.07,4.53,3.06,9.66,5.19,13.71,8.96,1.74,1.62,2.81,3.76,4.2,5.65,2,2.72,4.2,5.24,6.79,7.41,1.42,1.19,2.95,1.88,4.89,1.87,2.5-.01,4.62.58,6.36,2.9,1.73,2.3,4.73,3.32,7.13,4.96,1.01.7,2.12,1.54,1.4,2.62-1.14,1.73-.19,2.1,1.09,2.6,2.35.9,3.86,2.59,4.66,4.97,1.01,3.01,3.42,5.19,6.13,5.77,4.64.99,7.59,4.08,10.92,6.84.43.36.83.78,1.32,1.02,1.36.67,1.97,1.7,2,3.21.03,1.7.82,2.99,2.36,3.79.39.21.97.4,1.09.74,1.93,5.31,7.46,8.28,8.86,14.05.66,2.73,2.83,5.05,3.28,8,.05.31.23.67.47.88,3.41,2.99,4,7.7,6.8,11.06.44.53.57,1.2.54,1.9-.14,2.58.38,5.08,1.06,7.55.09.32.22.67.18.99-.68,4.94,2.06,9.21,2.72,13.88.11.76.37,1.56.76,2.21,1.07,1.79,1.62,3.67,1.45,5.77-.14,1.79.94,3.18,1.61,4.71.34.79,1.22,1.63-.57,2.29-.88.33-.59,2.24-.24,3.36.74,2.34.84,4.86,2.09,7.07.67,1.19.78,2.57.79,3.93,0,1.26.18,2.53.82,3.57,1.32,2.14,1.5,4.42,1.16,6.78-.35,2.39,0,4.65.81,6.89.55,1.51.25,2.93.03,4.52-.38,2.68.18,5.5.37,8.26.04.55.51,1.23.32,1.61-1.49,2.86-.13,5.71-.23,8.54-.09,2.43-.22,4.97-.9,7.45-.67,2.44-1.18,4.96-1.69,7.46-.4,1.99.12,4,1.04,5.87.72,1.46,1.14,2.96-.28,4.33-.7.67-.74,1.58-.79,2.5-.3,5.36-1.06,10.64-2.17,15.91-.77,3.67.12,7.35.85,10.98.33,1.64.93,3.2.88,4.94-.04,1.4.46,2.87,1.96,3.21,5.08,1.17,6.73,5.36,8.18,9.45,3.3,9.31,5.9,18.86,7.27,28.65,1.47,10.51.94,20.97-1.67,31.34-2.8,11.14-7.22,21.7-10.99,32.49-1.22,3.5-2.38,7.02-2.99,10.68-.95,5.71-3.48,10.65-7.25,14.95-2.63,3-5.97,5.07-9.82,6.23-1.28.39-2.62.59-3.94.85-4.72.93-5.09,1.39-5.26,6.11-.1,2.78-1.1,5.41-1.45,8.17-.66,5.22-3.05,10.07-3.93,15.23-.88,5.19-3.19,10.05-3.38,15.38-.04,1.02-.21,2.05-.76,2.9-2.45,3.86-3.28,8.28-4.56,12.56-.92,3.07-1.3,6.42-4.07,8.62-.16,2.61-2.77,4.53-2.05,7.42.25.99-.03,2.01-.44,2.95-.17.39-.24.98-.81.85-2.27-.5-2.32,1.12-2.43,2.57-.07.92-.25,1.78-.74,2.55-2.8,4.45-3.18,9.5-3.6,14.53-1.2,14.66-.63,29.36-.7,44.05-.02,3.35.29,6.71.47,10.07.08,1.57.02,3.13-.19,4.7-.61,4.6.11,9.17.39,13.76.09,1.5,1.07,2.07,2.44,2.3,9.03,1.54,16.6,5.91,23.33,11.96,3.26,2.94,7.47,3.44,11.56,4.11,1.56.26,3.11.42,4.5,1.2,5.84,3.3,12.2,5.63,17.7,9.62,3.55,2.58,7.78,4.02,11.83,5.61,9.4,3.68,18.6,7.82,27.87,11.79,8.66,3.7,17.33,7.38,25.99,11.08,7.84,3.34,15.68,6.68,23.52,10.02,3.1,1.32,5.83,3.31,9.01,4.53,5.93,2.29,11.92,4.55,17.59,7.39,8.53,4.27,17.66,7.11,26.11,11.58,4.93,2.61,10.47,4.05,15.49,6.51,9.26,4.53,28.19,14.16,37.39,18.83"/></g><g id="CENTRO"><line class="cls-1" x1="385.39" x2="385.39" y2="6"/><line class="cls-2" x1="385.39" y1="17.92" x2="385.39" y2="1013.04"/><line class="cls-1" x1="385.39" y1="1019" x2="385.39" y2="1025"/></g></svg>