<?xml version="1.0" encoding="UTF-8" standalone="no"?>
<!-- Uploaded to: SVG Repo, www.svgrepo.com, Generator: SVG Repo Mixer Tools -->

<svg
   fill="#000000"
   height="800px"
   width="800px"
   version="1.1"
   id="Layer_1"
   viewBox="0 0 512 512"
   xml:space="preserve"
   sodipodi:docname="foto_help.svg"
   inkscape:version="1.2.1 (9c6d41e410, 2022-07-14)"
   xmlns:inkscape="http://www.inkscape.org/namespaces/inkscape"
   xmlns:sodipodi="http://sodipodi.sourceforge.net/DTD/sodipodi-0.dtd"
   xmlns="http://www.w3.org/2000/svg"
   xmlns:svg="http://www.w3.org/2000/svg"><defs
   id="defs21" /><sodipodi:namedview
   id="namedview19"
   pagecolor="#505050"
   bordercolor="#ffffff"
   borderopacity="1"
   inkscape:showpageshadow="0"
   inkscape:pageopacity="0"
   inkscape:pagecheckerboard="1"
   inkscape:deskcolor="#505050"
   showgrid="false"
   inkscape:zoom="1.18"
   inkscape:cx="180.50847"
   inkscape:cy="142.37288"
   inkscape:window-width="1440"
   inkscape:window-height="847"
   inkscape:window-x="892"
   inkscape:window-y="-8"
   inkscape:window-maximized="1"
   inkscape:current-layer="Layer_1" />
<g
   id="g16">
	<g
   id="g14">
		<g
   id="g12">
			<path
   d="M416,21.333h32v32C448,59.221,452.779,64,458.667,64s10.667-4.779,10.667-10.667V10.667     C469.333,4.779,464.555,0,458.667,0H416c-5.888,0-10.667,4.779-10.667,10.667S410.112,21.333,416,21.333z"
   id="path2"
   style="fill:#ff0000;stroke-width:18.00000076" />
			<path
   d="M53.333,64C59.221,64,64,59.221,64,53.333v-32h32c5.888,0,10.667-4.779,10.667-10.667S101.888,0,96,0H53.333     c-5.888,0-10.667,4.779-10.667,10.667v42.667C42.667,59.221,47.445,64,53.333,64z"
   id="path4"
   style="fill:#ff0000;stroke-width:18.00000076" />
			<path
   d="M416,362.667h42.667c5.888,0,10.667-4.779,10.667-10.667v-42.667c0-5.888-4.779-10.667-10.667-10.667     S448,303.445,448,309.333v32h-32c-5.888,0-10.667,4.779-10.667,10.667C405.333,357.888,410.112,362.667,416,362.667z"
   id="path6"
   style="fill:#ff0000;stroke-width:18.00000076" />
			<path
   d="M421.163,384.981l-81.728-20.416l-6.955-27.819c21.888-21.653,36.864-51.392,41.301-81.92     c12.117-3.392,21.504-13.824,23.125-26.837l5.333-42.667c1.131-9.003-1.643-18.091-7.595-24.939     c-3.499-4.032-7.936-7.061-12.821-8.917l1.963-40.171l7.979-7.979c12.032-12.779,21.995-34.709,1.152-66.475     C376.917,12.395,349.739,0,312.128,0c-14.827,0-49.024,0-80.875,21.376C140.352,23.275,128,65.472,128,106.667     c0,9.579,2.325,31.147,3.861,44.139c-5.483,1.749-10.453,4.928-14.336,9.323c-6.059,6.891-8.896,16.043-7.765,25.173     l5.333,42.667c1.728,13.888,12.309,24.832,25.643,27.435c4.437,29.312,18.624,58.112,39.232,79.403l-7.424,29.739L90.816,384.96     C37.333,398.336,0,446.187,0,501.333c0,2.837,1.109,5.568,3.115,7.552C5.12,510.869,7.829,512,10.667,512l490.667-0.043     c5.888,0,10.667-4.779,10.667-10.667C512,446.187,474.667,398.336,421.163,384.981z M21.888,490.624     C26.283,449.92,55.531,415.787,96,405.653l87.936-21.973c3.819-0.96,6.805-3.925,7.765-7.765l10.453-41.835     c0.939-3.733-0.235-7.701-3.072-10.347c-21.547-20.224-35.819-49.856-38.165-79.253c-0.427-5.547-5.056-9.813-10.624-9.813     h-3.456c-5.376,0-9.92-4.011-10.603-9.344l-5.333-42.645c-0.384-3.093,0.533-6.08,2.603-8.405     c2.048-2.325,4.864-3.605,7.979-3.605h2.219c3.072,0,5.995-1.323,8-3.584c2.027-2.325,2.965-5.355,2.581-8.405     c-1.365-10.923-4.949-41.579-4.949-52.011c0-33.28,6.549-63.211,85.44-64c2.176-0.021,4.309-0.704,6.101-1.984     c23.829-17.067,49.408-19.349,71.253-19.349c29.952,0,51.136,9.152,62.976,27.2c14.165,21.632,8.043,32.832,1.365,39.936     l-10.667,10.667c-1.877,1.877-2.987,4.373-3.115,7.019l-2.603,53.376c-0.149,2.901,0.896,5.696,2.88,7.829     c1.963,2.091,4.715,3.307,7.616,3.349c3.093,0.043,5.931,1.365,7.979,3.691c2.005,2.304,2.901,5.227,2.517,8.256l-5.333,42.667     c-0.661,5.333-5.205,9.344-11.627,9.344c-5.547,0-10.176,4.267-10.624,9.856c-2.411,30.315-17.344,60.523-39.979,80.811     c-2.923,2.624-4.181,6.677-3.221,10.517l10.027,40.085c0.96,3.819,3.925,6.805,7.765,7.765l87.936,21.973     c40.469,10.112,69.696,44.267,74.091,84.992L21.888,490.624z"
   id="path8"
   style="fill:#ffff00;stroke-width:18.00000076" />
			<path
   d="M53.333,362.667H96c5.888,0,10.667-4.779,10.667-10.667c0-5.888-4.779-10.667-10.667-10.667H64v-32     c0-5.888-4.779-10.667-10.667-10.667s-10.667,4.779-10.667,10.667V352C42.667,357.888,47.445,362.667,53.333,362.667z"
   id="path10"
   style="fill:#ff0000;stroke-width:0.32;stroke-dasharray:none" />
		</g>
	</g>
</g>
<path
   style="mix-blend-mode:lighten;fill:#ffff00;stroke-width:0.5;stroke-dasharray:none"
   d="M 10.062798,797.67713 C 8.0169127,796.78653 5.1300472,794.35442 3.6475415,792.27244 1.2684857,788.93136 0.96946689,787.13026 1.1002223,776.92901 1.9690667,709.14367 45.163089,643.5496 108.19747,614.29204 c 16.28697,-7.55963 21.61681,-9.10646 94.89605,-27.54078 l 67.06535,-16.87113 5.90865,-23.76006 5.90864,-23.76006 -5.42086,-5.60285 c -24.19455,-25.0068 -45.60126,-67.18202 -53.70712,-105.81308 l -2.65147,-12.63641 -5.53045,-1.47563 c -7.10118,-1.89473 -15.45788,-7.27181 -21.51661,-13.84475 -10.07127,-10.92604 -11.34125,-15.51154 -17.09623,-61.72889 -4.33085,-34.7804 -4.70553,-39.79541 -3.45207,-46.20585 3.05248,-15.61113 13.28452,-29.32285 26.82501,-35.94759 7.54709,-3.69245 7.44748,-3.36971 5.54998,-17.98428 -3.31396,-25.52405 -4.85537,-55.77451 -3.65069,-71.64552 5.60554,-73.850438 48.81795,-108.497852 142.99412,-114.651702 17.35306,-1.133917 17.88421,-1.250962 24.83316,-5.47223 18.77221,-11.40351 45.57746,-21.1903794 68.81403,-25.1247048 26.75963,-4.53083518 69.15515,-4.33934989 91.92317,0.4151839 44.72113,9.3388909 75.46497,32.7687979 93.20793,71.0338529 6.13312,13.226883 8.5041,23.41483 8.5041,36.54155 0,19.3136 -6.54221,34.14794 -22.41658,50.82919 l -9.91348,10.41737 -1.19762,23.82851 c -0.65869,13.10567 -1.46553,27.33484 -1.79294,31.62036 l -0.59532,7.79185 6.52028,3.4138 c 8.56034,4.48192 16.67577,13.3195 21.29441,23.18932 5.54997,11.86 5.53348,19.18509 -0.14218,63.15162 -4.44226,34.41208 -5.05325,37.58076 -8.65845,44.90394 -4.95985,10.07491 -12.80647,17.88821 -23.00814,22.91048 -5.52417,2.71954 -8.21821,4.76946 -8.53626,6.49531 -8.30332,45.05648 -28.02568,85.65504 -56.92995,117.19049 l -7.33574,8.00354 5.53934,22.13835 5.53936,22.13835 69.92094,17.48194 c 82.37898,20.59675 92.27563,24.09222 118.60257,41.89 14.78093,9.99236 38.72543,34.05863 48.42874,48.67502 19.5413,29.43569 30.39623,61.7582 32.01693,95.33621 0.57464,11.90554 0.39612,13.56194 -1.84179,17.08938 -1.36296,2.14832 -4.23582,4.97772 -6.38414,6.28757 -3.87666,2.36363 -6.81248,2.38122 -390.41779,2.33911 -321.928475,-0.0354 -387.133311,-0.313 -390.231552,-1.66169 z M 765.34837,760.01452 c -2.18388,-19.30294 -13.15235,-46.92186 -26.11322,-65.75377 -13.64995,-19.83315 -39.0416,-41.10329 -60.92778,-51.03815 -13.88692,-6.30374 -19.83314,-7.97279 -94.64465,-26.5658 -38.56129,-9.58371 -71.86792,-18.22442 -74.01472,-19.20159 -2.14681,-0.97717 -4.9247,-3.45626 -6.17309,-5.50907 -2.69019,-4.42366 -18.08805,-65.0747 -18.08805,-71.24751 0,-6.04681 2.21358,-9.5109 12.60859,-19.73145 20.23802,-19.89837 36.32133,-46.27764 45.96408,-75.38861 3.88553,-11.73017 8.52334,-33.39414 8.56887,-40.02651 0.0399,-5.81714 4.0737,-13.60099 8.13733,-15.70237 1.95695,-1.01197 6.54418,-2.30822 10.19385,-2.88054 7.87425,-1.23481 12.06985,-3.72739 14.64003,-8.69756 1.96068,-3.79153 10.12224,-63.87837 10.13895,-74.64472 0.005,-3.27471 -0.85861,-7.2763 -1.98039,-9.1753 -2.44335,-4.13626 -9.728,-8.38766 -14.37204,-8.38766 -5.22718,0 -11.41512,-3.90015 -13.95595,-8.79621 -2.21659,-4.27126 -2.22483,-5.46349 -0.32696,-47.23038 1.07087,-23.56668 2.46791,-44.78698 3.10455,-47.15621 0.80554,-2.99787 4.80363,-8.06249 13.14861,-16.65616 15.25211,-15.70665 18.61614,-22.0499 18.43739,-34.76575 C 599.4175,91.805592 584.99669,67.657806 564.90201,53.200052 542.8719,37.349783 510.0214,30.595288 468.64675,33.408694 c -37.4788,2.548497 -61.96053,9.878019 -87.82272,26.293021 l -9.28318,5.892135 -17.68276,0.842322 c -62.53221,2.978734 -96.96753,17.380947 -111.65268,46.697568 -4.87177,9.72572 -7.05401,18.76666 -8.69581,36.02649 -1.53024,16.08685 -0.55677,32.86379 4.48236,77.25029 2.8062,24.71799 2.8361,25.81972 0.81132,29.88482 -3.14525,6.31464 -7.54256,8.92574 -16.61264,9.86453 -9.18699,0.95089 -13.24265,3.416 -16.53646,10.0512 l -2.28315,4.59929 4.52055,36.67114 c 4.84744,39.3228 5.9092,43.29687 12.62812,47.26583 1.85228,1.09417 5.7115,1.99242 8.57605,1.9961 8.03015,0.0108 13.66943,2.07231 17.45319,6.38177 3.03361,3.4551 3.69982,5.68865 5.48001,18.37278 5.74602,40.94089 23.09285,76.91111 52.36541,108.58446 10.29148,11.13553 10.80748,11.95243 10.80748,17.10984 0,4.96075 -13.9918,64.09461 -16.89962,71.4232 -3.32555,8.38146 -2.27246,8.02287 -83.82803,28.54424 -41.82697,10.52468 -78.91158,20.24668 -82.41024,21.60444 -20.83182,8.08443 -40.766433,21.44376 -56.30804,37.73527 -21.234724,22.25931 -34.578674,48.23207 -40.314361,78.46816 -1.036167,5.46222 -1.883939,10.41106 -1.883939,10.99741 0,0.62013 153.22212,1.06609 366.2923,1.06609 H 766.1422 Z"
   id="path1682"
   transform="scale(0.64)" /></svg>
