<?xml version="1.0" encoding="UTF-8" standalone="no"?>
<!-- Uploaded to: SVG Repo, www.svgrepo.com, Generator: SVG Repo Mixer Tools -->

<svg
   width="800px"
   height="800px"
   viewBox="-7.66 0 298.94 298.94"
   version="1.1"
   id="svg48"
   sodipodi:docname="men.svg"
   inkscape:version="1.2.1 (9c6d41e410, 2022-07-14)"
   xmlns:inkscape="http://www.inkscape.org/namespaces/inkscape"
   xmlns:sodipodi="http://sodipodi.sourceforge.net/DTD/sodipodi-0.dtd"
   xmlns="http://www.w3.org/2000/svg"
   xmlns:svg="http://www.w3.org/2000/svg">
  <sodipodi:namedview
     id="namedview50"
     pagecolor="#505050"
     bordercolor="#ffffff"
     borderopacity="1"
     inkscape:showpageshadow="0"
     inkscape:pageopacity="0"
     inkscape:pagecheckerboard="1"
     inkscape:deskcolor="#505050"
     showgrid="false"
     inkscape:zoom="0.59"
     inkscape:cx="437.28814"
     inkscape:cy="445.76271"
     inkscape:window-width="1440"
     inkscape:window-height="847"
     inkscape:window-x="892"
     inkscape:window-y="-8"
     inkscape:window-maximized="1"
     inkscape:current-layer="svg48" />
  <defs
     id="defs4">
    <style
       id="style2">.a{fill:#ffffff;}.b{fill:#7a7473;}.c{fill:#211715;}</style>
  </defs>
  <path
     class="c"
     d="M87.784,227.23q5.4-2.474,10.789-4.977a19.24,19.24,0,0,0,2.278-1.045q-1.1.45-.207.107.525-.21,1.044-.434a14.174,14.174,0,0,0,1.341-.652,12.789,12.789,0,0,0,2.14-1.542c2.249-1.983,3.165-4.838,3.618-7.705.653-4.132,1.354-8.251,1.693-12.424a2.824,2.824,0,0,0-2.8-2.8,2.855,2.855,0,0,0-2.8,2.8c-.3,3.676-.918,7.3-1.493,10.935a17.315,17.315,0,0,1-.8,3.379c.2-.521-.207.409-.263.509a6.478,6.478,0,0,1-.427.669c.282-.381-.294.3-.372.378s-.658.565-.478.432c-1.669,1.236-3.954,1.933-5.842,2.807q-5.124,2.369-10.252,4.728a2.822,2.822,0,0,0-1,3.831,2.866,2.866,0,0,0,3.831,1Z"
     id="path12"
     style="fill:#ffff00" />
  <path
     class="c"
     d="M173.533,199.207c.34,3.815.981,7.577,1.553,11.36a14.039,14.039,0,0,0,2.882,7.306,11.122,11.122,0,0,0,3.571,2.691c.507.248,1.032.465,1.556.675.139.056,1.041.428.305.107-.663-.29.12.064.292.143,2.03.938,4.048,1.9,6.069,2.857q4.435,2.1,8.871,4.2a2.878,2.878,0,0,0,3.831-1,2.825,2.825,0,0,0-1-3.831c-5.183-2.451-10.322-5.039-15.572-7.344a10.422,10.422,0,0,1-3.777-2.244c-.215-.257-.241-.28-.076-.072q-.154-.216-.294-.442a7.186,7.186,0,0,1-.482-.925c.223.521-.131-.455-.16-.554-.1-.338-.184-.681-.258-1.026a97.41,97.41,0,0,1-1.706-11.9,2.873,2.873,0,0,0-2.8-2.8,2.821,2.821,0,0,0-2.8,2.8Z"
     id="path14"
     style="fill:#ffff00" />
  <path
     class="c"
     d="M206.751,149.933a35.2,35.2,0,0,1-1.717,9.053c-.33,1.094-.692,2.176-1.055,3.259-.09.267-.177.534-.276.8-.045.118-.1.234-.14.353-.16.471.309-.682.039-.094a73.83,73.83,0,0,1-4.7,8.566c-5.008,7.945-10.962,15.351-18.507,21.251a35.263,35.263,0,0,1-13.628,6.863c-3.512.8-2.026,6.2,1.489,5.4,10.317-2.354,18.955-9.827,25.75-17.6a89.227,89.227,0,0,0,14.212-21.164,44.7,44.7,0,0,0,4.13-16.679c.11-3.6-5.49-3.6-5.6,0Z"
     id="path16"
     style="fill:#ffff00" />
  <path
     class="c"
     d="M73.176,148.855a83.249,83.249,0,0,0,10.362,28.991c6.009,9.932,14.78,18.907,25.123,24.316a47.912,47.912,0,0,0,17.422,5.235,2.819,2.819,0,0,0,2.8-2.8,2.863,2.863,0,0,0-2.8-2.8c-9.847-1.008-18.861-5.981-26.07-12.65a66.627,66.627,0,0,1-17.751-27.2,92.732,92.732,0,0,1-3.686-14.579,2.825,2.825,0,0,0-3.445-1.956,2.864,2.864,0,0,0-1.955,3.445Z"
     id="path18"
     style="fill:#ffff00" />
  <path
     class="c"
     d="M214.025,117.256a7.5,7.5,0,0,1,8.545-.688c3.119,1.836,3.464,5.39,3.569,8.727.251,8.034-1.981,16.666-6.873,23.145a16.3,16.3,0,0,1-10.353,6.5,2.821,2.821,0,0,0-1.955,3.444,2.866,2.866,0,0,0,3.444,1.956c10.329-1.732,16.49-11.484,19.376-20.762a43.615,43.615,0,0,0,1.923-15.17c-.272-5.095-1.651-9.939-6.3-12.678a13.252,13.252,0,0,0-15.332,1.563,2.827,2.827,0,0,0,0,3.96,2.856,2.856,0,0,0,3.96,0Z"
     id="path20"
     style="fill:#ffff00" />
  <path
     class="c"
     d="M75.051,113.3a13.2,13.2,0,0,0-13.513-2.429,12.736,12.736,0,0,0-5.63,4.363,14.607,14.607,0,0,0-2.314,7.04c-1.145,9.843,1.495,20.986,7.421,29,3.363,4.544,8.013,8.122,13.7,9.076a2.885,2.885,0,0,0,3.444-1.956,2.822,2.822,0,0,0-1.956-3.444c-7.945-1.332-12.58-8.468-15.047-15.582a38.947,38.947,0,0,1-2.2-12.3c-.04-3.337-.092-7.571,2.677-9.873a7.5,7.5,0,0,1,9.454.066,2.87,2.87,0,0,0,3.959,0,2.825,2.825,0,0,0,0-3.96Z"
     id="path22"
     style="fill:#ffff00" />
  <path
     class="c"
     d="M196.06,35.247c4.041,1.9,7.18,4.873,10.238,8.188a65.7,65.7,0,0,1,9.572,13.483c5.683,10.59,7.867,23.248,7.5,35.18a64.2,64.2,0,0,1-3.019,17.911c-1.118,3.435,4.288,4.907,5.4,1.489,3.844-11.815,4.064-24.721,1.86-36.877a70.689,70.689,0,0,0-5.977-18.732,71.085,71.085,0,0,0-9.964-14.833c-3.562-4.127-7.789-8.295-12.782-10.644a2.879,2.879,0,0,0-3.831,1,2.824,2.824,0,0,0,1,3.831Z"
     id="path24"
     style="fill:#ffff00" />
  <path
     class="c"
     d="M188.2,23.013A52.665,52.665,0,0,0,172.114,8.379,61.48,61.48,0,0,0,150.262,1.1C134.35-1.217,117.1.014,102.046,5.876A71.522,71.522,0,0,0,77.314,21.914c-2.551,2.552,1.407,6.513,3.96,3.96C92.518,14.628,107.494,8.287,123.1,6.421c14.415-1.723,30.517-1.134,43.579,5.392a46.389,46.389,0,0,1,16.691,14.026,2.884,2.884,0,0,0,3.831,1.005,2.821,2.821,0,0,0,1-3.831Z"
     id="path32"
     style="fill:#ffff00" />
  <path
     class="c"
     d="M89.007,219.828c-8.379,2.94-16.369,6.931-24.4,10.7a218.526,218.526,0,0,0-23.8,12.786A125.98,125.98,0,0,0,26.487,253.6a67.412,67.412,0,0,0-14.525,18.06c-1.531,2.664-2.945,5.4-4.438,8.08-2.7,4.852-4.783,10.012-7.187,15.01a2.875,2.875,0,0,0,1.005,3.831,2.825,2.825,0,0,0,3.831-1c2.07-4.306,3.9-8.726,6.094-12.972,1.349-2.611,2.8-5.181,4.212-7.761,3.658-6.7,7.963-13,13.663-18.146.765-.69,1.552-1.355,2.351-2.006q.627-.512,1.266-1.011l.362-.283c-.084.066-.428.328,0,0,.263-.2.525-.4.789-.6,2.449-1.837,4.969-3.579,7.533-5.25A196.107,196.107,0,0,1,63.8,237.068c8.747-4.19,17.528-8.624,26.692-11.84a2.87,2.87,0,0,0,1.955-3.445,2.825,2.825,0,0,0-3.444-1.955Z"
     id="path34"
     style="fill:#ffff00" />
  <path
     class="c"
     d="M193.128,225.228c8.048,2.824,15.7,6.688,23.417,10.3a214.5,214.5,0,0,1,23.291,12.522c2.78,1.747,5.513,3.571,8.174,5.495q.807.584,1.6,1.18.35.261.7.526l.384.294c-.449-.344-.012-.009.08.063.834.657,1.662,1.321,2.472,2.008a63.239,63.239,0,0,1,13.735,17.14c1.547,2.71,3.007,5.475,4.506,8.213,2.593,4.734,4.625,9.745,6.963,14.605a2.824,2.824,0,0,0,3.83,1,2.86,2.86,0,0,0,1-3.831c-6.785-14.109-13.07-29.481-25.01-40.159a108.741,108.741,0,0,0-13.127-9.78,196.163,196.163,0,0,0-22.942-12.784c-9.049-4.312-18.119-8.872-27.591-12.2a2.828,2.828,0,0,0-3.444,1.955,2.857,2.857,0,0,0,1.956,3.445Z"
     id="path36"
     style="fill:#ffff00" />
  <path
     class="c"
     d="M77.381,229.414a113.376,113.376,0,0,0,49.307,18.792,114.862,114.862,0,0,0,52.919-5.392,111.394,111.394,0,0,0,26.58-13.42,2.873,2.873,0,0,0,1-3.831,2.826,2.826,0,0,0-3.831-1,108.636,108.636,0,0,1-47.169,18.136,110.005,110.005,0,0,1-50.51-5.187,105.854,105.854,0,0,1-25.475-12.929,2.827,2.827,0,0,0-3.831,1,2.857,2.857,0,0,0,1,3.831Z"
     id="path38"
     style="stroke-width:0.1129852;stroke-dasharray:none;fill:#ffff00" />
  <path
     style="fill:#ffff00;stroke-width:0.158337"
     d="m 60.766398,115.34841 c -0.790001,-0.64512 -1.321307,-2.46596 -2.379379,-8.15435 -1.519878,-8.171157 -1.901617,-12.449537 -1.907245,-21.375478 -0.0056,-8.833528 0.231481,-11.560758 1.596422,-18.367079 3.779977,-18.848937 15.915767,-36.088878 29.977677,-42.585881 1.327413,-0.613301 2.771125,-1.115092 3.208254,-1.115092 1.209534,0 2.519022,1.28878 2.519022,2.479185 0,1.392652 -0.776396,2.109627 -3.838203,3.544438 -3.528254,1.653395 -6.249558,3.615858 -9.839468,7.095709 -9.164006,8.883058 -14.765248,19.963165 -17.380734,34.381728 -0.779569,4.297577 -0.833931,5.220733 -0.84853,14.408654 -0.01678,10.567727 0.318976,14.103997 2.194268,23.110136 0.98707,4.74042 0.988329,5.3791 0.01252,6.35491 -0.923433,0.92344 -2.340211,1.0188 -3.314598,0.22312 z"
     id="path2488" />
  <path
     style="fill:#ffff00;fill-opacity:1;stroke-width:0.423729"
     d="m 182.28767,306.71452 c -2.9355,-4.82704 -7.93598,-32.55024 -9.46542,-52.47723 -1.45896,-19.00878 -0.61456,-50.87368 1.69552,-63.98305 3.84564,-21.82349 9.2972,-38.56 18.35674,-56.35593 12.35118,-24.2618 27.30164,-42.596305 46.02145,-56.438426 8.72665,-6.452808 20.06974,-12.278161 24.98725,-12.832435 3.20741,-0.361522 3.85924,-0.133128 5.47218,1.917392 3.79368,4.822875 2.09236,7.142045 -9.94808,13.560796 -4.84716,2.584022 -10.37683,5.904035 -12.28813,7.377808 -27.50686,21.209995 -46.76237,51.629025 -55.9352,88.364015 -4.91589,19.68697 -5.16938,22.36421 -5.13548,54.23729 0.0336,31.59413 0.43103,36.20339 5.09667,59.11177 3.37567,16.5746 2.64379,20.12551 -4.14808,20.12551 -2.57957,0 -3.39992,-0.45422 -4.70942,-2.60751 z"
     id="path2904"
     transform="matrix(0.373675,0,0,0.373675,-7.66,0)" />
</svg>
