<?xml version="1.0" encoding="iso-8859-1"?>
<!-- Generator: Adobe Illustrator 19.0.0, SVG Export Plug-In . SVG Version: 6.00 Build 0)  -->
<svg version="1.1" id="Layer_1" xmlns="http://www.w3.org/2000/svg" xmlns:xlink="http://www.w3.org/1999/xlink" x="0px" y="0px"
	 viewBox="0 0 330.102 330.102" style="enable-background:new 0 0 330.102 330.102;" xml:space="preserve">
<g id="XMLID_468_">
	<path id="XMLID_469_" d="M315,300.051h-15v-90h15.102c8.284,0,15-6.716,15-15c0-8.284-6.716-15-15-15H285h-5.856H263H67H55.165H45
		H15.102c-8.284,0-15,6.716-15,15c0,8.284,6.716,15,15,15H30v90H15c-8.284,0-15,6.716-15,15c0,8.284,6.716,15,15,15h30h9.533H150
		v-30v-15.006c0-8.285,6.716-15,15-15s15,6.715,15,15v15.006v30h101.458H285h30c8.284,0,15-6.716,15-15
		C330,306.767,323.284,300.051,315,300.051z"/>
	<path id="XMLID_470_" d="M263,135.051c0-8.284-6.716-15-15-15h-78.02v-30h55.039c8.284,0,15-6.716,15-15v-60
		c0-8.284-6.716-15-15-15H154.98c-8.284,0-15,6.716-15,15v60v45H82c-8.284,0-15,6.716-15,15v15h196V135.051z"/>
</g>
<g>
</g>
<g>
</g>
<g>
</g>
<g>
</g>
<g>
</g>
<g>
</g>
<g>
</g>
<g>
</g>
<g>
</g>
<g>
</g>
<g>
</g>
<g>
</g>
<g>
</g>
<g>
</g>
<g>
</g>
</svg>
